<svg height="1000" width="2500" xmlns="http://www.w3.org/2000/svg" viewBox="0 -0.13399999999999856 1028.9350000000002 172.87699999999998"><path fill='#000' d="M783.786.02v134.021c0 8.71 4.3 13.184 13.066 13.629.109.009 44.162.009 44.162.009v15.035c0 1.679-.907 2.858-2.776 2.858h-71.493c-22.086 0-25.352-12.158-25.352-23.201V9.13c0-6.288 2.395-9.264 9.827-9.101zM701.394.02l.01 156.823c0 6.978-2.958 8.73-8.893 8.73h-33.546V8.676c0-5.172 1.978-8.647 9.5-8.647zM0 22.839C0 10.217.027 0 20.76 0h91.138v15.934c0 1.134-.535 2.16-2.123 2.16l-54.615-.019c-7.341 0-11.034 3.52-11.034 10.925v42.039h64.26l.01 16.696c0 1.479-.926 2.259-2.378 2.259H44.126v66.702c-.136 6.433-3.348 8.992-10.408 8.865H0zM177.718.005v126.189c0 10.834 1.533 18.429 9.137 22.82 10.19 5.899 27.448 5.99 37.838.164 7.105-3.965 9.818-10.335 9.818-22.948V8.416c0-5.3 2.023-8.411 9.427-8.411h32.984l.009 122.46c0 28.446-17.912 40.115-33.746 44.443-21.069 5.744-53.072 5.835-72.953-.136-23.755-7.15-34.853-21.215-34.88-44.298l-.018-113.967c0-5.499 1.978-8.502 8.303-8.502zM979.892.03c-8.367 0-13.14 3.902-15.027 11.37l-27.012 114.157-.735-.018L909.216.029h-38.147c-7.359 0-9.672 3.785-9.672 9.628v155.916h16.115c2.595 0 3.666-1.289 3.666-3.93V30.918h2.55l34.489 134.656h22.585c8.51 0 11.678-3.494 13.774-11.905l30.96-122.75h2.504l-.01 134.655 30.135-.046c7.395 0 10.77-2.84 10.77-10.108V.02zM478.475 89.989h-42.411v75.584H469.6c5.908 0 8.884-1.733 8.884-8.729 0 0-.01-32.33-.01-66.855"/><path d="M476.003 57.69c1.488-1.207 2.36-2.115 2.468-4.71V.034h-32.929c-7.413 0-9.473 3.62-9.473 8.775v80.158z" fill="#ed1a3a"/><path fill='#000' d="M330.608 152.477c18.42-2.604 24.544-13.547 24.544-29.68V9.01c0-6.805 3.684-9.01 8.44-9.01h33.971v107.588c0 26.46-5.57 39.825-21.241 51.104-8.158 5.852-22.422 12.53-53.327 12.53-17.694 0-25.561-.997-26.623-1.242-1.497-.345-2.105-1.262-2.105-2.56V153.53c7.268.208 23.91.717 36.34-1.053M542.727.005c-20.715 0-20.724 10.217-20.724 22.838V65.5c0 .88-.381 1.234-.78 1.624l-29.01 22.857h29.79v75.576h33.7c7.06.136 10.271-2.432 10.39-8.856V90h61.892c1.452 0 2.386-.79 2.386-2.26V71.034h-64.279V28.995c0-7.395 3.702-10.925 11.034-10.925l54.633.019c1.57 0 2.124-1.017 2.124-2.15V.004z"/></svg>
