<svg clip-rule="evenodd" fill-rule="evenodd" height="2060" stroke-linejoin="round" stroke-miterlimit="1.414" viewBox="1.425 -1.128 202.201 19.775" width="10500" xmlns="http://www.w3.org/2000/svg"><g fill-rule="nonzero"><g fill="#000"><path d="m107.518 17.098h5.159l.442-1.365h-5.156m40.005 1.365h5.161l.442-1.365h-5.16m-114.045-3.863h1.313l.952 5.228h3.617l-2.8-15.244h-2.412l-5.039 8.737h.023-3.972l-.443 1.279h3.655l-3.017 5.228h1.95l3.022-5.223-.007-.005h3.158l-.232-1.279h-2.183l.008-.003 2.652-4.585.835 4.588h-1.312zm55.568-1.649-1.737 5.46h6.169l-.425 1.417h-9.999l2.176-6.877h-2.246l.427-1.277h2.231l-.009-.003 2.244-7.087h9.996l-.39 1.348h-6.204l-1.826 5.742h4.025l-.425 1.277z"/><path d="m107.968 15.736 4.389-13.882h-3.687l-4.821 15.244h3.67m40.899-1.362 4.392-13.882h-3.687l-4.824 15.244h3.67m-130.89-15.245-2.289 7.232h.019-5.62l2.288-7.232h-3.616l-2.289 7.232h-3.685l-.408 1.346h3.67l-2.11 6.666h3.616l2.11-6.666h5.6l-2.106 6.666h3.616l4.818-15.244zm152.289 10.017h1.649l.954 5.228h3.615l-2.8-15.244h-2.413l-5.035 8.737h.021-3.969l-.447 1.279h3.654l-3.013 5.228h1.949l3.021-5.223-.008-.005h2.822v-1.279h-2.078l.008-.003 2.652-4.585.835 4.588h-1.417z"/></g><path d="m1.425 10.431.427-1.346"/><path d="m51.713 9.869c-5.063-3.353.093-10.997 7.245-7.033l-.766 1.277c-4.432-2.94-8.054 1.195-4.391 2.814 1.066.554 1.875.809 3.24 1.793 1.374.984 1.832 2.341 1.449 4.003-1.107 4.805-7.116 5.924-10.739 2.768l.981-1.274c4.771 4.002 9.289-.47 6.264-2.472-1.239-.823-2.43-1.28-3.283-1.876zm17.409 0c-5.06-3.353.092-10.997 7.244-7.033l-.765 1.277c-4.434-2.94-8.054 1.195-4.39 2.814 1.067.554 1.874.809 3.239 1.793 1.374.984 1.831 2.341 1.449 4.003-1.109 4.805-7.117 5.924-10.739 2.768l.98-1.274c4.773 4.002 9.29-.47 6.265-2.472-1.239-.823-2.431-1.28-3.283-1.876zm58.785-1.01h.659l-.408 1.394h-.757l-1.803 5.494-3.783-.05 1.821-5.44h-2.363l.462-1.384h.905l1.46.003 2.349-7.022s.497.003 4.966 0c6.125-.008 6.926 5.695.845 7.554 5.28 1.226 2.873 7.564-4.11 7.69h-6.806l.471-1.401 5.09.05h1.283c2.761-.044 5.633-5.452 1.367-5.494h-1.397l.408-1.394h1.2c3.845-.084 4.689-5.745.796-5.658h-.851zm61.593 8.239h-.388v-1.417h.246c6.737 0 9.431-12.409 3.76-12.409h-1.208l-4.253 12.409h1.455v1.417h-5.496l4.964-15.244h4.538c10.508-.134 8.269 14.822-3.618 15.244z" fill="#000"/></g></svg>
