<?xml version="1.0" encoding="UTF-8" standalone="no"?>
<!-- Created with Inkscape (http://www.inkscape.org/) by Marsupilami -->
<svg
   xmlns:svg="http://www.w3.org/2000/svg"
   xmlns="http://www.w3.org/2000/svg"
   version="1.0"
   width="768"
   height="768"
   viewBox="0 0 28.346251 28.346251"
   id="svg3256">
  <defs
     id="defs3258" />
  <g
     transform="translate(-17.7175,-17.71627)"
     id="layer1">
    <path
       d="M 25.512,382.678 C 31.774,382.678 36.851,387.754 36.851,394.014 C 36.851,400.277 31.774,405.355 25.512,405.355 C 19.249,405.355 14.174,400.277 14.174,394.014 C 14.174,387.754 19.249,382.678 25.512,382.678"
       transform="matrix(1.25,0,0,-1.25,0,524.41002)"
       id="path2466"
       style="fill:#ed1c24;fill-opacity:1;fill-rule:nonzero;stroke:none" />
    <path
       d="M 9.59375,7.84375 C 6.9200002,7.7400001 6.19625,11.53875 6.03125,12.1875 C 6.0225001,12.23375 6,12.25 6,12.25 C 5.1750002,12.1375 4.71875,11.96875 4.71875,11.96875 L 4.53125,12.5 C 5.0875002,12.76375 5.90625,12.84375 5.90625,12.84375 C 5.7462499,13.865 4.9375,15.78125 4.9375,15.78125 C 4.9375,15.78125 4.22,15.5625 3.3125,15.5625 C 2.1324999,15.5625 1.7175,16.1175 1.6875,16.46875 C 1.61,17.37875 2.76375,17.8125 3.5625,17.8125 C 5.1212501,17.812501 5.9375,16.96875 5.9375,16.96875 C 5.9375002,16.96875 10.30125,18.625 14.875,18.625 C 20.86125,18.625 25.90625,17.03125 25.90625,17.03125 L 25.75,16.46875 C 25.750001,16.468751 22.09375,17.7425 15.09375,17.65625 C 10.265,17.597499 6.5625,16.1875 6.5625,16.1875 C 6.5625001,16.1875 6.7025,15.9375 6.78125,15.78125 C 7.2649999,14.795 7.84375,12.8125 7.84375,12.8125 C 7.8437501,12.8125 11.15625,11.885 11.15625,9.25 C 11.15625,8.4162504 10.36,7.8775 9.59375,7.84375 z M 9.71875,8.59375 C 10.2325,8.5937497 10.4175,9 10.375,9.375 C 10.125,11.57625 7.9375,12.09375 7.9375,12.09375 C 7.9375002,12.09375 8.46625,8.59375 9.71875,8.59375 z M 15.03125,10.40625 C 14.475,10.40625 14.09375,10.635 14.09375,11.15625 C 14.09375,11.68375 14.53875,11.8125 15.03125,11.8125 C 15.525,11.8125 16,11.6 16,11.0625 C 16,10.52375 15.43375,10.40625 15.03125,10.40625 z M 22.4375,12.3125 C 20.840001,12.3125 19.975,13.69 19.9375,14.5 C 19.93,14.67625 19.90625,14.6875 19.90625,14.6875 C 19.86875,14.73 19.31875,15.375 18.625,15.375 C 18.070001,15.375 17.96875,14.9225 17.96875,14.625 C 17.96875,14.3025 18.24375,13.03125 19,13.03125 C 19.41125,13.03125 19.65625,13.375 19.65625,13.375 L 19.875,12.65625 C 19.875,12.65625 19.53,12.3775 18.8125,12.375 C 17.267501,12.37375 16.225,13.5175 16.1875,14.5625 C 16.18,14.71875 16.15375,14.77125 16.15625,14.78125 C 16.105,14.84375 15.74375,15.28125 15.25,15.28125 C 14.9125,15.28125 14.90625,15.0225 14.90625,14.90625 C 14.90625,14.7475 15.5625,12.46875 15.5625,12.46875 L 13.8125,12.5 L 13.21875,14.71875 C 13.21875,14.71875 12.24375,15.405 10.90625,15.5 C 10.21625,15.5475 9.96875,15.12125 9.96875,14.875 C 9.9687502,14.7725 9.96875,14.78125 9.96875,14.78125 C 9.9700002,14.78125 10.25875,14.8125 10.46875,14.8125 C 10.63375,14.8125 12.6875,14.65375 12.6875,13.40625 C 12.6875,12.6925 11.96375,12.4375 11.0625,12.4375 C 9.39625,12.4375 8.21875,13.46125 8.21875,14.6875 C 8.21875,15.80625 9.17375,16.28125 10.40625,16.28125 C 11.805,16.28125 13.1875,15.4375 13.1875,15.4375 C 13.1875,15.4375 13.27125,16.28125 14.375,16.28125 C 15.51375,16.28125 16.40625,15.4375 16.40625,15.4375 C 16.40625,15.4375 16.89875,16.25 18.03125,16.25 C 19.18875,16.250001 20.0625,15.3125 20.0625,15.3125 C 20.062501,15.3125 20.385,16.1875 21.53125,16.1875 C 22.4275,16.1875 22.90625,15.625 22.90625,15.625 C 22.90625,15.625 23.15625,16.1875 23.9375,16.1875 C 24.891251,16.1875 25.59375,15.53125 25.59375,15.53125 L 25.4375,14.96875 C 25.4375,14.96875 25.075,15.25 24.8125,15.25 C 24.613751,15.25 24.5,15.08875 24.5,14.90625 C 24.500001,14.49625 25.15625,12.46875 25.15625,12.46875 L 23.5625,12.5 L 23.5,12.75 C 23.500001,12.75 23.2625,12.3125 22.4375,12.3125 z M 11.125,12.9375 C 11.36,12.95125 11.53875,13.11 11.53125,13.28125 C 11.4925,14.39125 10.125,14.21875 10.125,14.21875 C 10.125,14.21875 10.32625,12.88875 11.125,12.9375 z M 22.75,12.96875 C 23.078751,12.96875 23.25,13.23 23.25,13.4375 C 23.250001,13.48 23.06375,15.375 22.125,15.375 C 21.695,15.375 21.6875,14.88625 21.6875,14.75 C 21.687501,14.38875 21.97125,12.96875 22.75,12.96875 z M 3,16.25 C 3.0816211,16.241758 3.1478125,16.245 3.21875,16.25 C 3.9024999,16.287501 4.5,16.53125 4.5,16.53125 C 4.4999999,16.531251 3.79625,17.07625 3.21875,17.09375 C 2.7774999,17.107501 2.5,16.82 2.5,16.65625 C 2.4999999,16.384376 2.7551367,16.274727 3,16.25 z"
       transform="translate(17.7175,17.71627)"
       id="path2468"
       style="fill:#ffffff;fill-opacity:1;fill-rule:nonzero;stroke:none" />
  </g>
</svg>
