<?xml version="1.0" encoding="UTF-8"?>
<!DOCTYPE svg PUBLIC "-//W3C//DTD SVG 1.1//EN" "http://www.w3.org/Graphics/SVG/1.1/DTD/svg11.dtd">
<!-- Creator: CorelDRAW -->
<svg xmlns="http://www.w3.org/2000/svg" xml:space="preserve" width="240mm" height="45mm" shape-rendering="geometricPrecision" text-rendering="geometricPrecision" image-rendering="optimizeQuality" fill-rule="evenodd" clip-rule="evenodd"
viewBox="0 0 240 50.9091">
 <g id="Ebene_x0020_1">
  <metadata id="CorelCorpID_0Corel-Layer"/>
  <g id="_138079608">
   <path id="_137995520" fill="white" fill-rule="nonzero" d="M205.809 40.111c0.486982,0.0228364 0.780073,0.450909 0.780073,0.878982 0,0.481018 -0.438836,0.786036 -0.670836,0.863418l0.611491 1.31447 -0.540073 0 -0.642327 -1.34196 -0.728291 0 0 1.34196 -0.5632 0 0 -3.05687 1.75316 0zm-1.18996 1.29164l1.09105 0c0.299055,-0.0834909 0.326545,-0.241455 0.335564,-0.4432 0.00770909,-0.197091 -0.181964,-0.420364 -0.373382,-0.420364l-1.05324 0 0 0.863564z"/>
   <path id="_138002232" fill="white" fill-rule="nonzero" d="M205.217 44.3273c1.48131,0 2.67869,-1.19898 2.67869,-2.67869 0,-1.48 -1.19738,-2.68029 -2.67869,-2.68029 -1.48,0 -2.67913,1.20029 -2.67913,2.68029 0,1.47971 1.19913,2.67869 2.67913,2.67869zm-2.2432 -2.70007c0,-1.23825 1.0016,-2.24335 2.2432,-2.24335 1.23869,0 2.2416,1.00509 2.2416,2.24335 0,1.24029 -1.00291,2.24495 -2.2416,2.24495 -1.2416,0 -2.2432,-1.00465 -2.2432,-2.24495z"/>
   <polygon id="_137713304" fill="#F6D900" fill-rule="nonzero" points="0.664582,44.8797 117.527,47.8897 234.392,44.8797 234.392,43.5034 117.527,40.4892 0.664582,43.5034 "/>
   <g>
    <polygon id="_137792048" fill="#343E8B" fill-rule="nonzero" points="41.1139,4.75433 52.2726,4.75433 52.2726,25.5023 66.3031,25.5023 66.3031,31.5312 41.1139,31.5312 "/>
    <path id="_137791288" fill="#343E8B" fill-rule="nonzero" d="M182.528 32.6054c-8.69513,0 -16.0097,-2.58778 -16.0097,-9.7152l0 -18.1359 10.7991 0 0 17.3085c0,3.34982 2.47549,4.87985 5.21062,4.87985 2.73804,0 5.21062,-1.53004 5.21062,-4.87985l0 -17.3085 10.7977 0 0 18.1359c0,7.12742 -7.30982,9.7152 -16.0083,9.7152z"/>
    <path id="_137791360" fill="#343E8B" fill-rule="nonzero" d="M221.163 11.8739l11.4138 0c-0.597964,-6.14982 -9.25571,-7.98647 -15.9644,-7.98647 -6.70531,0 -15.4404,2.19331 -15.4404,8.90211 0,4.90211 4.79505,6.46996 8.15985,7.15142 2.38749,0.481455 6.36713,1.15985 8.35825,1.59825 2.76989,0.605818 4.20305,1.16902 4.20305,2.80175 0,1.74545 -1.61033,2.63825 -4.91636,2.63825 -3.13425,0 -5.00713,-0.974545 -5.52771,-3.18458l-11.6307 0.00174545c0.682909,7.29469 10.0294,8.8896 17.4058,8.8896 7.42211,0 16.2919,-1.76655 16.2919,-8.99593 0,-3.92509 -2.52858,-6.53702 -8.75156,-7.78167 -3.25687,-0.651055 -7.77265,-1.49949 -9.50865,-1.7984 -2.29964,-0.401018 -3.12058,-1.22967 -3.12058,-2.36029 0,-1.16553 1.11695,-2.38924 4.34196,-2.38924 2.72596,0 4.2,0.795636 4.68567,2.51345z"/>
    <path id="_137708120" fill="#343E8B" fill-rule="nonzero" d="M154.403 21.673c8.0352,0 10.0797,-5.11025 10.0797,-8.37542 0,-3.00524 -1.72873,-8.54327 -10.0689,-8.54327l-21.601 0 0.00130909 26.7769 10.6032 0 0 -9.85818 10.9857 0zm-10.9871 -5.8464l0 -5.22269 7.07884 0c1.76393,0 3.27229,0.823855 3.27229,2.52553 0,1.49935 -0.866473,2.69716 -3.28567,2.69716l-7.06545 0z"/>
    <path id="_137709352" fill="#343E8B" fill-rule="nonzero" d="M79.7261 5.40655l0.303855 -0.652218 11.1952 0 -11.6492 17.7612 0 9.01571 -10.5911 0 0 -9.01571 -11.6109 -17.7612 11.1556 0 0.311127 0.652218 5.048 8.8656c0.332509,0.569164 0.432727,0.569164 0.800145,0l5.03724 -8.8656z"/>
    <path id="_137710928" fill="#343E8B" fill-rule="nonzero" d="M113.585 31.5312l0.197382 -0.533091 5.68873 -13.2291c0.147055,-0.347636 0.490036,-0.254691 0.494691,0.0504727l0 13.7117 9.13396 0 0 -26.7769 -11.039 0 -0.203055 0.576582 -6.80422 15.36c-0.250909,0.582836 -0.484509,0.579927 -0.734982,0l-6.80116 -15.36 -0.203491 -0.576582 -11.0404 0 0 26.7769 9.13876 0 0 -13.7117c0.00174545,-0.305164 0.344582,-0.398109 0.493527,-0.0504727l5.68262 13.2291 0.201745 0.533091 5.79491 0z"/>
    <path id="_137711944" fill="#343E8B" fill-rule="nonzero" d="M38.5927 18.1443c0,8.99578 -7.80145,14.4125 -18.6839,14.4125 -10.8825,0 -18.6841,-5.41673 -18.6841,-14.4125 0,-9.00058 7.8016,-14.4148 18.6841,-14.4148 10.8825,0 18.6839,5.41425 18.6839,14.4148zm-11.2332 0c0,-5.41716 -2.80335,-8.76102 -7.45076,-8.76102 -4.64916,0 -7.44916,3.34385 -7.44916,8.76102 0,5.41542 2.8,8.75753 7.44916,8.75753 4.64742,0 7.45076,-3.34211 7.45076,-8.75753z"/>
    <path id="_137715720" fill="#343E8B" fill-rule="nonzero" d="M236.886 4.35942c0.570473,0.0257455 0.915055,0.5296 0.915055,1.03215 0,0.5632 -0.514473,0.9216 -0.787782,1.01411l0.718109 1.54196 -0.634618 0 -0.754182 -1.57556 -0.8544 0 0 1.57556 -0.660509 0 0 -3.58822 2.05833 0zm-1.39782 1.51651l1.28073 0c0.350691,-0.0989091 0.384291,-0.283927 0.393309,-0.520582 0.00901818,-0.232291 -0.212509,-0.495127 -0.437091,-0.495127l-1.23695 0 0 1.01571z"/>
    <path id="_137715792" fill="#343E8B" fill-rule="nonzero" d="M236.189 9.30764c1.73949,0 3.14633,-1.40698 3.14633,-3.14342 0,-1.73775 -1.40684,-3.14502 -3.14633,-3.14502 -1.73644,0 -3.14327,1.40727 -3.14327,3.14502 0,1.73644 1.40684,3.14342 3.14327,3.14342zm-2.63185 -3.16785c0,-1.45556 1.17629,-2.63491 2.63185,-2.63491 1.45542,0 2.63302,1.17935 2.63302,2.63491 0,1.45411 -1.1776,2.63345 -2.63302,2.63345 -1.45556,0 -2.63185,-1.17935 -2.63185,-2.63345z"/>
   </g>
  </g>
 </g>
</svg>
