<?xml version="1.0" encoding="UTF-8"?>
<svg xmlns="http://www.w3.org/2000/svg" width="500" height="114">
<path
d="m 285.4,103.6 28.8,-43.6 -0.1,8.6 0,34.9 17.2,0 0,-70.6 -17.1,0 -37.8,56.8 -37,-56.8 -17.1,0 0,70.6 17.2,0 0,-34.9 -0.1,-8.6 28.8,43.6 z M 10,10.4 10,99.1 c 0,3.1 2.1,4.6 4.8,4.6 l 80.9,0 0,-12.5 -63.3,0 c -1.7,0 -2.4,-1.1 -2.4,-3.2 l 0,-77.6 z m 179.4,93.3 c 4.7,0 5.9,-1.8 8.3,-4.8 2.4,-3 5.9,-11.3 5.9,-20.8 l 0,-45 -17.2,0 0,41.9 c 0,5.8 0,11.6 -2.2,13.8 -2.2,2.2 -5.4,2.7 -10.7,2.7 l -35.6,0 c -5.4,0 -8.5,-0.4 -10.7,-2.7 -2.2,-2.2 -2.2,-8 -2.2,-13.8 l 0,-41.9 -17.2,0 0,45 c 0,9.5 3.6,17.8 5.9,20.8 2.4,3 3.5,4.8 8.3,4.8 z m 182.3,0 -17.2,0 0,-70.6 17.2,0 z M 490,103.5 447.7,67 l 39.4,-33.9 -21.8,0 -28.6,24.5 -28.4,-24.6 -21.9,0 39.6,34.1 -42.4,36.7 21.8,0 31.5,-27.3 31.4,27.2 z"/>
</svg>
